<svg width="271" height="271" viewBox="0 0 271 271" fill="none" xmlns="http://www.w3.org/2000/svg">
<g clip-path="url(#clip0_104_120)">
<path d="M207.484 0H63.5156C28.4369 0 0 28.4369 0 63.5156V207.484C0 242.563 28.4369 271 63.5156 271H207.484C242.563 271 271 242.563 271 207.484V63.5156C271 28.4369 242.563 0 207.484 0Z" fill="#2396ED"/>
<path d="M149.46 129.279H171.391V109.436H149.46V129.279ZM123.353 129.279H145.282V109.436H123.353V129.279ZM97.7664 129.279H119.697V109.436H97.7664V129.279ZM72.1802 129.279H93.5903V109.436H72.1813L72.1802 129.279ZM46.0732 129.279H68.004V109.436H46.0732V129.279ZM72.1813 105.259H93.5892V85.4179H72.1813V105.259ZM97.7675 105.259H119.697V85.4179H97.7664L97.7675 105.259ZM123.353 105.259H145.282V85.4179H123.353V105.259ZM123.353 81.2397H145.282V61.3984H123.353V81.2397ZM241.359 120.403C241.359 120.403 231.96 111.526 212.641 114.659C210.552 99.5163 194.365 90.64 194.365 90.64C194.365 90.64 179.223 108.916 190.188 129.28C187.056 130.846 181.834 132.935 174.001 132.935H30.4092C27.7976 142.856 27.7976 208.647 99.855 208.647C151.548 208.647 190.188 184.628 208.464 140.767C235.615 142.855 241.359 120.403 241.359 120.403Z" fill="white"/>
</g>
<defs>
<clipPath id="clip0_104_120">
<rect width="271" height="271" fill="white"/>
</clipPath>
</defs>
</svg>
