<svg width="256" height="256" viewBox="0 0 256 256" fill="none" xmlns="http://www.w3.org/2000/svg">
<g clip-path="url(#clip0_59_71)">
<path d="M196 0H60C26.8629 0 0 26.8629 0 60V196C0 229.137 26.8629 256 60 256H196C229.137 256 256 229.137 256 196V60C256 26.8629 229.137 0 196 0Z" fill="#242938"/>
<mask id="mask0_59_71" style="mask-type:luminance" maskUnits="userSpaceOnUse" x="38" y="38" width="180" height="180">
<path d="M38 38H218V218H38V38Z" fill="white"/>
</mask>
<g mask="url(#mask0_59_71)">
<path fill-rule="evenodd" clip-rule="evenodd" d="M203.801 178.21C194.011 177.938 186.416 178.941 180.051 181.619C178.218 182.355 175.277 182.355 175.035 184.662C176.015 185.63 176.133 187.214 176.992 188.556C178.459 190.991 181.033 194.271 183.357 195.973L191.191 201.571C195.965 204.488 201.351 206.193 206.002 209.113C208.696 210.817 211.388 213.007 214.082 214.834C215.454 215.807 216.285 217.392 218 217.997V217.629C217.144 216.538 216.897 214.957 216.044 213.735L212.367 210.209C208.82 205.465 204.41 201.325 199.636 197.922C195.718 195.245 187.152 191.596 185.56 187.097L185.319 186.824C188.008 186.552 191.191 185.605 193.764 184.875C197.929 183.784 201.721 184.024 206.002 182.93L211.882 181.226V180.135C209.678 177.946 208.087 175.025 205.763 172.959C199.521 167.606 192.661 162.373 185.56 157.994C181.766 155.562 176.868 153.977 172.829 151.913C171.356 151.182 168.911 150.817 168.055 149.601C165.846 146.929 164.625 143.397 163.034 140.232L152.997 119.064C150.794 114.319 149.444 109.574 146.755 105.195C134.144 84.5121 120.431 71.9831 99.3749 59.6931C94.8479 57.1381 89.4619 56.0391 83.7349 54.7031L74.5549 54.2131C72.5929 53.3621 70.6359 51.0491 68.9219 49.9531C61.9439 45.5731 43.9479 36.0851 38.8019 48.5901C35.4969 56.4971 43.7009 64.2821 46.4859 68.2991C48.5709 71.0971 51.2599 74.2591 52.7329 77.4231C53.5559 79.4901 53.8309 81.6821 54.6899 83.8721C56.6459 89.2241 58.4839 95.1881 61.0549 100.178C62.4269 102.733 63.8679 105.413 65.5819 107.723C66.5619 109.086 68.2769 109.67 68.6419 111.859C66.9269 114.294 66.8089 117.94 65.8289 120.986C61.4199 134.734 63.1349 151.766 69.3769 161.888C71.3389 164.928 75.9619 171.622 82.2349 169.065C87.7439 166.875 86.5149 159.941 88.1059 153.857C88.4759 152.399 88.2299 151.425 88.9619 150.449V150.722L93.9829 160.819C97.7779 166.78 104.391 172.986 109.897 177.125C112.833 179.315 115.16 183.089 118.831 184.425V184.057H118.59C117.854 182.966 116.751 182.475 115.772 181.624C113.569 179.435 111.121 176.757 109.406 174.325C104.267 167.513 99.7399 159.968 95.6979 152.183C93.7369 148.412 92.0219 144.275 90.4359 140.504C89.6949 139.043 89.6949 136.85 88.4739 136.125C86.6349 138.797 83.9469 141.115 82.5939 144.398C80.2669 149.628 80.0259 156.077 79.1699 162.769C78.6759 162.891 78.8949 162.769 78.6759 163.041C74.7629 162.071 73.4129 158.051 71.9459 154.648C68.2739 146.01 67.6589 132.141 70.8419 122.164C71.6979 119.609 75.3749 111.579 73.9069 109.146C73.1669 106.834 70.7239 105.498 69.3739 103.671C67.7829 101.359 66.0739 98.4411 64.9709 95.8861C62.0349 89.0691 60.5669 81.5291 57.3809 74.7161C55.9079 71.5521 53.3399 68.2661 51.2569 65.3491C48.9299 62.0631 46.3649 59.7501 44.5269 55.8591C43.9149 54.4961 43.0589 52.3311 44.0379 50.8691C44.2799 49.8961 44.7729 49.5061 45.7479 49.2881C47.3379 47.9241 51.8719 49.6531 53.4629 50.3781C57.9899 52.2051 61.7849 53.9071 65.5799 56.4591C67.2949 57.6751 69.1329 59.9881 71.3359 60.5991H73.9099C77.8279 61.4491 82.2319 60.8711 85.8999 61.9621C92.3899 64.0341 98.2639 67.0721 103.532 70.3601C119.567 80.4581 132.792 94.8141 141.725 111.971C143.193 114.769 143.805 117.324 145.155 120.244C147.729 126.208 150.912 132.289 153.477 138.132C156.051 143.85 158.498 149.694 162.17 154.438C164.008 156.993 171.35 158.329 174.654 159.668C177.104 160.759 180.896 161.741 183.105 163.077C187.264 165.632 191.427 168.552 195.342 171.35C197.298 172.806 203.423 175.849 203.787 178.276L203.801 178.21ZM78.9579 72.4871C77.267 72.4723 75.5813 72.6766 73.9429 73.0951V73.3681H74.1839C75.1639 75.3151 76.8789 76.6541 78.1019 78.3581L80.9199 84.1981L81.1619 83.9261C82.8759 82.7101 83.7349 80.7631 83.7349 77.8461C82.9999 76.9951 82.8789 76.1411 82.2669 75.2901C81.5319 74.0741 79.9409 73.4631 78.9579 72.4931V72.4871Z" fill="white"/>
</g>
</g>
<defs>
<clipPath id="clip0_59_71">
<rect width="256" height="256" fill="white"/>
</clipPath>
</defs>
</svg>
