<svg width="256" height="255" viewBox="0 0 256 255" fill="none" xmlns="http://www.w3.org/2000/svg">
<g clip-path="url(#clip0_58_28)">
<path d="M126.916 0.0717773C62.084 0.0717773 66.132 28.1868 66.132 28.1868L66.204 57.3148H128.072V66.0598H41.631C41.631 66.0598 0.14502 61.3548 0.14502 126.77C0.14502 192.187 36.355 189.867 36.355 189.867H57.965V159.511C57.965 159.511 56.8 123.301 93.597 123.301H154.959C154.959 123.301 189.434 123.858 189.434 89.9818V33.9698C189.434 33.9698 194.67 0.0717773 126.916 0.0717773ZM92.802 19.6598C94.264 19.6585 95.7119 19.9454 97.0628 20.5043C98.4138 21.0632 99.6413 21.883 100.675 22.9167C101.709 23.9505 102.529 25.178 103.087 26.529C103.646 27.8799 103.933 29.3278 103.932 30.7898C103.933 32.2518 103.646 33.6997 103.087 35.0506C102.529 36.4015 101.709 37.629 100.675 38.6628C99.6413 39.6966 98.4138 40.5164 97.0628 41.0752C95.7119 41.6341 94.264 41.9211 92.802 41.9198C91.34 41.9211 89.8921 41.6341 88.5412 41.0752C87.1903 40.5164 85.9628 39.6966 84.929 38.6628C83.8952 37.629 83.0754 36.4015 82.5166 35.0506C81.9577 33.6997 81.6707 32.2518 81.672 30.7898C81.6707 29.3278 81.9577 27.8799 82.5166 26.529C83.0754 25.178 83.8952 23.9505 84.929 22.9167C85.9628 21.883 87.1903 21.0632 88.5412 20.5043C89.8921 19.9454 91.34 19.6585 92.802 19.6598Z" fill="url(#paint0_linear_58_28)"/>
<path d="M128.757 254.126C193.589 254.126 189.541 226.011 189.541 226.011L189.469 196.884H127.6V188.139H214.041C214.041 188.139 255.527 192.844 255.527 127.427C255.527 62.011 219.317 64.331 219.317 64.331H197.707V94.686C197.707 94.686 198.872 130.896 162.075 130.896H100.713C100.713 130.896 66.2378 130.339 66.2378 164.216V220.229C66.2378 220.229 61.0028 254.126 128.756 254.126M162.87 234.54C161.408 234.541 159.96 234.254 158.609 233.695C157.258 233.137 156.031 232.317 154.997 231.283C153.963 230.249 153.143 229.022 152.584 227.671C152.026 226.32 151.739 224.872 151.74 223.41C151.738 221.948 152.025 220.5 152.584 219.149C153.143 217.798 153.963 216.57 154.996 215.536C156.03 214.502 157.258 213.683 158.609 213.124C159.96 212.565 161.408 212.278 162.87 212.279C164.332 212.278 165.78 212.565 167.131 213.124C168.482 213.682 169.709 214.502 170.743 215.536C171.777 216.57 172.596 217.797 173.155 219.148C173.714 220.499 174.001 221.947 174 223.409C174.001 224.871 173.714 226.319 173.155 227.67C172.596 229.021 171.777 230.248 170.743 231.282C169.709 232.316 168.482 233.136 167.131 233.694C165.78 234.253 164.332 234.541 162.87 234.54Z" fill="url(#paint1_linear_58_28)"/>
</g>
<defs>
<linearGradient id="paint0_linear_58_28" x1="2454.36" y1="2285.14" x2="15110.3" y2="14814.8" gradientUnits="userSpaceOnUse">
<stop stop-color="#387EB8"/>
<stop offset="1" stop-color="#366994"/>
</linearGradient>
<linearGradient id="paint1_linear_58_28" x1="3688.66" y1="3970.32" x2="17279.7" y2="16818.4" gradientUnits="userSpaceOnUse">
<stop stop-color="#FFE052"/>
<stop offset="1" stop-color="#FFC331"/>
</linearGradient>
<clipPath id="clip0_58_28">
<rect width="256" height="255" fill="white"/>
</clipPath>
</defs>
</svg>
